<?xml version="1.0" standalone="no"?>
<!DOCTYPE svg PUBLIC "-//W3C//DTD SVG 20010904//EN"
 "http://www.w3.org/TR/2001/REC-SVG-20010904/DTD/svg10.dtd">
<svg version="1.0" xmlns="http://www.w3.org/2000/svg"
 width="260.000000pt" height="260.000000pt" viewBox="0 0 260.000000 260.000000"
 preserveAspectRatio="xMidYMid meet">
<metadata>
Created by potrace 1.11, written by Peter Selinger 2001-2013
</metadata>
<g transform="translate(0.000000,260.000000) scale(0.100000,-0.100000)"
fill="#000000" stroke="none">
<path d="M395 2566 c-18 -13 -18 -15 8 -58 l26 -44 -22 -26 c-17 -21 -34 -27
-78 -31 -91 -8 -155 -50 -193 -125 -18 -34 -10 -67 20 -85 18 -10 18 -32 0
-50 -32 -32 -107 -154 -127 -206 -17 -45 -19 -71 -15 -141 2 -47 5 -89 7 -95
1 -5 -1 -20 -5 -32 -6 -19 -4 -22 10 -16 11 4 15 2 11 -4 -7 -12 26 -118 44
-139 6 -7 24 -16 40 -19 27 -6 29 -10 29 -53 0 -26 6 -52 15 -62 14 -15 14
-21 0 -53 -31 -75 3 -156 120 -285 33 -36 79 -74 109 -89 28 -14 56 -33 62
-41 6 -8 16 -12 21 -9 6 4 19 -5 28 -19 9 -15 62 -72 116 -127 54 -55 99 -108
99 -118 0 -10 5 -21 11 -25 8 -4 7 -9 -2 -15 -11 -7 -10 -11 4 -22 18 -13 47
-108 47 -155 0 -26 -27 -64 -50 -72 -26 -8 -154 0 -183 12 -50 20 -87 3 -170
-80 -42 -42 -77 -80 -77 -84 0 -18 23 -6 65 33 33 30 55 42 80 44 42 2 55 -20
17 -29 -42 -9 -59 -23 -45 -37 8 -8 22 -7 55 5 62 23 273 77 262 67 -8 -7
-122 -50 -148 -56 -14 -2 -65 -15 -88 -22 -10 -2 -18 -11 -18 -19 0 -10 6 -13
18 -10 9 3 69 17 132 31 63 14 125 28 138 30 12 3 22 1 22 -3 0 -5 -52 -28
-115 -51 -110 -41 -146 -63 -127 -75 5 -3 70 9 143 28 103 26 139 31 156 23
21 -9 22 -11 5 -21 -9 -7 -44 -20 -77 -31 -66 -20 -95 -40 -80 -54 10 -8 52 1
279 63 54 15 100 25 103 23 2 -3 -8 -7 -22 -11 -14 -4 -25 -11 -25 -16 0 -12
5 -12 28 -1 44 23 126 51 247 87 62 18 92 34 63 34 -9 0 -29 -5 -43 -10 -43
-16 -50 0 -8 20 21 10 46 20 56 24 11 3 15 11 11 17 -4 7 -3 9 3 6 12 -7 138
46 148 63 4 6 -3 6 -22 -1 -56 -21 -5 10 114 70 66 34 124 61 127 61 12 0 50
40 44 46 -7 6 -135 -54 -237 -112 -35 -20 -61 -32 -57 -25 4 6 27 22 52 37 24
14 44 30 44 35 0 5 7 9 15 9 8 0 15 4 15 8 0 5 11 15 25 22 14 7 25 20 25 27
0 11 -7 10 -32 -4 -18 -10 -34 -21 -36 -25 -2 -5 -10 -8 -17 -8 -8 0 -19 -8
-24 -17 -6 -10 -11 -13 -11 -6 0 7 16 25 37 40 20 15 47 38 60 50 20 19 27 21
42 11 15 -9 32 -9 75 2 63 15 72 11 82 -37 6 -29 3 -34 -22 -44 -16 -6 -42
-17 -59 -24 -16 -7 -50 -21 -75 -31 l-44 -19 29 -6 c18 -3 42 1 60 10 17 8 35
16 42 17 7 1 27 9 44 18 40 20 39 20 39 -6 0 -34 11 -68 21 -68 5 0 9 15 9 34
0 23 5 35 18 39 9 3 36 13 60 21 39 15 45 15 65 1 25 -18 67 -19 122 -4 21 6
57 12 80 14 22 1 64 6 92 10 48 7 58 5 122 -29 64 -33 131 -48 131 -27 0 4
-15 11 -33 14 -18 3 -55 19 -82 36 -71 45 -105 52 -167 35 -29 -8 -94 -19
-144 -25 -79 -9 -95 -9 -116 5 -21 14 -29 14 -73 1 -26 -8 -57 -23 -67 -32
-10 -9 -18 -11 -18 -5 0 6 5 14 10 17 15 9 12 25 -4 25 -8 0 -16 16 -20 40 -9
55 -32 66 -106 50 -32 -7 -63 -9 -69 -6 -14 9 -15 36 -1 36 5 0 7 7 4 15 -4
10 -13 13 -25 10 -13 -4 -19 -1 -19 8 0 20 -51 40 -83 32 -23 -6 -27 -3 -37
33 -12 45 -26 180 -24 227 1 17 12 68 24 115 l22 86 33 -4 c45 -5 98 42 115
104 12 40 11 53 -3 90 -12 32 -13 52 -6 76 22 77 2 218 -31 218 -5 0 -9 25 -9
57 0 56 -9 79 -108 267 -7 13 -17 54 -22 92 -9 62 -14 72 -47 101 -20 18 -53
37 -73 43 -89 27 -111 42 -111 72 0 44 -15 65 -70 92 -38 19 -50 22 -50 11 0
-8 7 -18 17 -23 14 -9 14 -10 -5 -16 -25 -8 -62 9 -62 29 0 7 -11 27 -25 44
-21 24 -35 31 -72 33 -47 3 -57 12 -67 58 -3 14 -19 33 -37 44 -42 25 -151 33
-204 14 -35 -12 -45 -12 -85 4 -57 22 -217 25 -245 4z m233 -24 c12 -7 22 -16
22 -20 0 -4 17 -7 38 -7 23 0 36 4 35 12 -3 16 84 26 135 15 58 -13 92 -38 92
-65 0 -38 21 -57 70 -61 25 -2 49 -4 53 -5 4 -1 17 -21 28 -45 15 -35 27 -47
55 -56 29 -10 39 -9 59 4 31 20 55 11 55 -23 0 -14 6 -37 13 -51 15 -30 82
-70 119 -70 16 0 42 -13 61 -30 30 -26 36 -39 45 -102 6 -39 9 -75 6 -79 -2
-4 8 -20 22 -36 15 -15 33 -44 41 -63 9 -19 24 -48 35 -63 35 -48 27 -156 -17
-251 -22 -46 -29 -81 -35 -160 -5 -64 -4 -106 3 -114 5 -7 7 -15 3 -19 -3 -3
-6 -1 -6 5 0 7 -4 12 -9 12 -4 0 -11 -36 -14 -81 -4 -67 -9 -86 -29 -108 -32
-34 -138 -194 -138 -207 0 -28 -33 -116 -51 -136 -11 -13 -28 -37 -38 -54 -18
-29 -71 -53 -71 -33 0 5 -6 8 -12 7 -8 -2 -13 7 -12 22 1 26 -1 30 -63 97 -24
26 -43 40 -43 32 1 -23 27 -64 42 -64 8 0 12 -11 11 -28 -1 -18 2 -25 9 -21 6
4 8 3 4 -4 -3 -6 -15 -10 -26 -9 -17 1 -18 3 -5 17 19 21 19 30 0 30 -9 0 -18
7 -21 15 -5 11 -19 14 -61 11 -47 -3 -53 -1 -47 13 16 39 16 51 1 51 -10 0
-18 -12 -21 -32 -7 -48 -4 -68 10 -68 16 0 -7 -82 -25 -88 -19 -6 -79 26 -85
46 -6 18 -84 62 -109 62 -7 0 -26 14 -43 31 -16 17 -48 44 -71 60 -32 22 -47
42 -60 80 -24 67 -67 119 -99 119 -38 0 -63 17 -78 55 -17 40 -23 105 -12 123
9 16 0 45 -12 38 -5 -3 -15 26 -22 64 -9 45 -18 70 -27 70 -7 0 -13 7 -13 15
0 9 -7 18 -15 21 -19 8 -19 35 1 82 16 38 36 239 25 257 -7 12 -2 116 7 129
11 18 21 -34 23 -116 1 -46 4 -89 6 -95 8 -21 39 -15 68 15 l28 27 -7 -42 c-6
-44 6 -93 25 -93 6 0 9 7 5 15 -3 9 0 15 9 15 8 0 17 15 21 38 11 62 64 163
110 207 34 33 55 45 101 54 139 30 153 38 216 131 31 47 66 92 77 102 23 19
25 28 6 28 -7 0 -36 -26 -65 -57 -39 -43 -54 -54 -61 -43 -7 11 -11 10 -26 -4
-13 -14 -14 -20 -5 -26 9 -5 10 -10 2 -14 -6 -4 -11 -3 -11 3 0 6 -8 8 -17 5
-15 -5 -15 -4 -3 5 18 12 7 26 -12 15 -7 -5 -20 -7 -30 -6 -9 2 -19 -2 -22 -7
-4 -6 -12 -8 -19 -5 -7 2 -21 -4 -31 -15 -10 -11 -24 -18 -30 -14 -7 4 -7 1 1
-8 10 -12 8 -15 -8 -15 -10 0 -19 4 -19 9 0 4 -4 5 -10 2 -5 -3 -10 -15 -10
-25 0 -10 -8 -25 -18 -32 -10 -7 -33 -34 -51 -60 -17 -27 -37 -48 -43 -48 -6
0 -4 8 5 18 10 10 17 23 17 27 0 5 17 27 38 48 34 36 35 39 12 32 -14 -4 -31
-15 -39 -26 -7 -10 -17 -19 -21 -19 -15 0 3 41 23 51 15 9 17 13 6 20 -8 4
-19 3 -26 -3 -25 -20 -21 -3 5 27 14 17 23 22 19 13 -6 -18 2 -23 32 -18 12 1
13 -1 2 -14 -11 -12 -9 -15 8 -13 14 1 22 11 27 30 6 28 -5 53 -13 30 -5 -15
-33 -18 -33 -4 0 6 4 13 10 16 5 3 10 13 10 22 0 14 -3 14 -20 -2 -17 -15 -20
-16 -15 -3 8 21 -12 33 -29 18 -11 -8 -15 -8 -18 1 -5 15 -38 5 -38 -11 0 -6
5 -8 12 -4 13 8 6 -6 -31 -56 -29 -40 -79 -93 -66 -70 18 32 51 76 68 91 22
21 12 52 -14 44 -14 -5 -17 -2 -13 9 8 20 -10 21 -29 1 -12 -11 -17 -12 -20
-2 -4 9 -8 8 -16 -3 -9 -13 -12 -13 -23 -1 -7 8 -8 11 -2 8 7 -4 15 0 18 9 11
27 -2 29 -29 4 -30 -29 -32 -19 -4 21 23 33 17 58 -9 37 -13 -11 -14 -11 -8 0
4 7 5 20 2 29 -5 13 -9 13 -24 2 -9 -8 -4 1 11 19 15 19 27 43 27 54 0 20 -1
21 -20 3 -11 -10 -20 -22 -20 -27 0 -4 -13 -25 -28 -47 -25 -34 -29 -36 -42
-23 -13 14 -12 15 2 10 12 -5 27 10 57 57 43 66 49 81 29 69 -7 -5 15 23 50
61 74 83 82 103 53 144 -12 16 -21 31 -21 34 0 17 187 15 218 -1z m-280 -172
c-7 -11 -18 -20 -25 -20 -18 0 -5 28 15 33 10 3 18 5 20 6 1 0 -3 -8 -10 -19z
m-55 -5 c-3 -9 -8 -14 -10 -11 -3 3 -2 9 2 15 9 16 15 13 8 -4z m-49 -50 c-4
-8 -10 -15 -15 -15 -5 0 -15 -12 -22 -27 -16 -37 -35 -56 -48 -48 -6 4 9 27
38 56 26 27 49 49 50 49 1 0 0 -7 -3 -15z m26 -19 c0 -2 -7 -9 -15 -16 -13
-11 -14 -10 -9 4 5 14 24 23 24 12z m0 -33 c0 -5 -10 -19 -21 -33 l-21 -25 18
33 c18 32 24 38 24 25z m34 -133 c-9 -16 -20 -30 -25 -30 -11 0 -4 16 19 43
21 24 23 21 6 -13z m-110 -35 c-4 -8 -8 -15 -10 -15 -2 0 -4 7 -4 15 0 8 4 15
10 15 5 0 7 -7 4 -15z m174 -38 c9 3 14 3 10 -1 -5 -6 -14 -9 -48 -15 -3 -1 2
-6 10 -11 13 -8 12 -10 -2 -10 -10 0 -18 -4 -18 -10 0 -5 8 -7 18 -4 14 5 14
4 2 -4 -8 -6 -18 -8 -22 -6 -4 3 -8 2 -8 -3 -1 -4 -15 -24 -32 -43 -32 -36
-28 -27 18 45 9 13 12 30 8 36 -4 8 -3 9 4 5 6 -4 17 2 24 14 7 11 14 16 16
11 2 -6 11 -7 20 -4z m187 -14 c-8 -16 -30 -45 -49 -65 -19 -20 -42 -48 -52
-63 -20 -31 -31 -26 -12 6 24 43 113 149 125 149 1 0 -5 -12 -12 -27z m-95 -3
c-5 -9 -17 -23 -27 -31 -17 -13 -17 -13 0 7 22 27 22 38 -3 31 -11 -3 -18 -1
-15 4 4 5 17 8 30 7 18 -2 22 -6 15 -18z m-189 -23 c-10 -9 -11 -8 -5 6 3 10
9 15 12 12 3 -3 0 -11 -7 -18z m633 11 c-13 -24 -47 -58 -58 -58 -5 0 5 16 24
35 35 37 46 44 34 23z m-500 -12 c-3 -8 -12 -17 -20 -20 -11 -4 -12 -2 -1 14
14 23 29 27 21 6z m-201 -11 c-3 -9 -8 -14 -10 -11 -3 3 -2 9 2 15 9 16 15 13
8 -4z m577 11 c0 -2 -8 -10 -17 -17 -16 -13 -17 -12 -4 4 13 16 21 21 21 13z
m40 -46 c0 -5 -5 -10 -11 -10 -5 0 -7 5 -4 10 3 6 8 10 11 10 2 0 4 -4 4 -10z
m-432 -20 c-7 -10 -14 -17 -17 -15 -4 4 18 35 25 35 2 0 -1 -9 -8 -20z m374
-2 c-7 -7 -12 -8 -12 -2 0 14 12 26 19 19 2 -3 -1 -11 -7 -17z m-232 2 c0 -5
-2 -10 -4 -10 -3 0 -8 5 -11 10 -3 6 -1 10 4 10 6 0 11 -4 11 -10z m1149 -367
c14 -48 14 -74 0 -142 -10 -46 -9 -64 3 -100 14 -39 14 -48 0 -82 -19 -49 -54
-81 -87 -81 -14 0 -28 2 -31 5 -3 2 10 38 28 78 33 73 33 74 38 40 3 -19 10
-36 15 -38 6 -2 10 43 10 122 0 107 -2 126 -18 137 -17 13 -17 15 0 55 10 24
21 43 25 43 4 0 12 -17 17 -37z m-1349 -227 c0 -3 -4 -8 -10 -11 -5 -3 -10 -1
-10 4 0 6 5 11 10 11 6 0 10 -2 10 -4z m-88 -98 c-7 -7 -12 -23 -12 -36 0 -18
4 -22 19 -17 11 3 22 2 25 -3 3 -6 -3 -12 -14 -15 -17 -4 -18 -9 -9 -37 15
-40 71 -100 95 -100 18 1 18 1 1 14 -12 10 -14 15 -6 18 7 2 25 -9 41 -26 21
-22 25 -32 16 -38 -10 -6 -9 -8 2 -8 9 0 24 -14 34 -31 l18 -30 -49 24 c-26
14 -64 43 -84 64 -64 68 -129 154 -129 171 0 10 -3 28 -7 42 -6 21 -4 23 9 13
12 -10 19 -10 34 1 22 16 34 12 16 -6z m61 -115 c-3 -7 -9 -10 -14 -7 -14 8
-11 21 5 21 8 0 12 -6 9 -14z m1198 -116 c-10 -9 -11 -8 -5 6 3 10 9 15 12 12
3 -3 0 -11 -7 -18z m-30 -101 c-6 -14 -12 -26 -14 -26 -6 0 -1 35 7 48 13 21
17 7 7 -22z m35 -171 c16 -89 35 -135 55 -135 6 0 8 8 4 19 -3 12 0 21 11 25
35 13 42 -11 23 -79 -8 -29 -35 -62 -103 -130 -101 -100 -171 -150 -281 -201
-72 -33 -77 -34 -160 -28 -49 4 -81 10 -73 15 9 6 8 9 -5 15 -9 3 -14 10 -11
15 6 10 -4 12 -57 9 -40 -2 -61 15 -29 23 37 9 21 27 -24 27 l-43 0 -2 50 c-1
57 -23 161 -46 217 -13 34 -6 28 68 -50 45 -48 88 -87 95 -87 6 0 12 -7 12
-16 0 -9 8 -23 18 -30 23 -18 37 -18 23 0 -10 12 -8 13 9 9 11 -3 23 -9 26
-14 16 -27 218 54 291 117 15 13 31 24 35 24 4 0 10 21 13 48 10 75 42 160 87
236 40 67 43 69 46 41 1 -17 9 -70 18 -120z m-86 131 c0 -2 -8 -10 -17 -17
-16 -13 -17 -12 -4 4 13 16 21 21 21 13z m-54 -143 c-8 -15 -15 -25 -16 -21 0
12 23 58 27 54 3 -2 -2 -17 -11 -33z m-61 -91 c-15 -16 -16 -15 -4 12 7 15 15
23 17 16 3 -7 -3 -19 -13 -28z m25 -11 c-6 -12 -15 -21 -21 -21 -6 0 -3 7 5
16 9 8 16 23 17 32 0 10 3 12 5 5 3 -7 0 -21 -6 -32z m308 -2 c-3 -8 -7 -3
-11 10 -4 17 -3 21 5 13 5 -5 8 -16 6 -23z m-474 3 c6 -10 -21 -52 -34 -52 -5
0 -4 14 1 30 11 30 23 38 33 22z m36 -32 c0 -5 8 -7 18 -4 13 5 14 4 3 -4 -7
-5 -11 -15 -7 -21 5 -7 1 -8 -10 -4 -13 5 -16 3 -11 -10 4 -11 2 -14 -8 -11
-8 3 -11 13 -8 21 5 13 1 12 -23 -3 l-29 -19 30 32 c31 33 45 40 45 23z m426
-56 c-4 -9 -9 -15 -11 -12 -3 3 -3 13 1 22 4 9 9 15 11 12 3 -3 3 -13 -1 -22z
m-86 -124 c0 -5 -5 -10 -11 -10 -5 0 -7 5 -4 10 3 6 8 10 11 10 2 0 4 -4 4
-10z m-800 -110 c0 -5 -5 -10 -11 -10 -5 0 -7 5 -4 10 3 6 8 10 11 10 2 0 4
-4 4 -10z m530 -90 c0 -5 -10 -10 -22 -10 -19 0 -20 2 -8 10 19 13 30 13 30 0z
m-390 -20 c-8 -5 -19 -10 -25 -10 -5 0 -3 5 5 10 8 5 20 10 25 10 6 0 3 -5 -5
-10z m138 -11 c-2 -6 -7 -10 -11 -10 -4 1 -20 -5 -37 -14 -28 -15 -80 -21 -67
-9 5 5 97 39 115 43 2 1 2 -4 0 -10z m-218 -8 c-8 -5 -31 -11 -50 -15 l-35 -6
35 14 c41 17 75 21 50 7z m280 -11 c-14 -4 -38 -10 -55 -13 -25 -5 -24 -3 10
12 22 10 47 16 55 13 10 -4 7 -8 -10 -12z m157 14 c-3 -3 -12 -4 -19 -1 -8 3
-5 6 6 6 11 1 17 -2 13 -5z m-52 -14 c-11 -5 -31 -9 -45 -9 -23 0 -23 1 -5 9
11 5 31 9 45 9 23 0 23 -1 5 -9z m-265 -55 c0 -6 -73 -25 -78 -20 -2 2 11 8
29 14 41 11 49 12 49 6z"/>
<path d="M1048 2149 c-33 -19 -18 -24 60 -21 106 5 114 -3 119 -104 7 -143 34
-192 110 -197 18 -1 33 -7 33 -14 0 -6 -9 -9 -20 -6 -40 11 -15 -23 38 -51 30
-16 31 -18 29 -75 -2 -53 2 -64 32 -107 37 -53 50 -117 51 -246 0 -43 4 -78 9
-78 5 0 12 26 17 58 4 31 9 66 11 77 2 11 5 43 7 70 2 28 10 63 17 79 11 23
11 30 1 34 -9 3 -8 11 5 33 19 32 12 49 -13 28 -16 -13 -16 -12 -3 10 10 18
11 25 2 28 -7 2 -9 11 -6 19 3 8 0 14 -7 14 -6 0 -9 4 -6 9 4 5 3 17 0 25 -5
13 -13 8 -36 -24 -33 -45 -52 -47 -23 -3 24 36 47 54 63 48 7 -3 12 4 12 15 0
11 -5 20 -10 20 -6 0 -9 4 -8 9 4 13 -4 15 -30 7 -13 -4 -19 -12 -16 -18 5 -7
2 -9 -8 -5 -9 3 -20 2 -24 -1 -5 -4 4 5 20 21 29 27 30 51 1 27 -20 -17 -19
-1 1 21 12 14 14 25 7 45 l-9 28 -22 -22 c-27 -27 -42 -29 -18 -3 18 19 14 47
-5 36 -5 -4 -9 -2 -9 4 0 5 5 13 10 16 11 7 4 25 -10 25 -12 0 -50 -41 -50
-53 0 -5 8 -3 18 4 16 13 16 12 1 -6 -8 -11 -20 -32 -27 -47 -6 -16 -19 -28
-29 -28 -16 0 -16 1 1 13 9 7 19 28 22 46 3 19 12 40 20 48 28 29 4 48 -26 21
-8 -8 -7 -2 4 15 16 26 15 47 -3 47 -4 0 -13 -10 -20 -22 -11 -22 -8 -6 5 27
3 8 1 15 -5 15 -7 0 -14 -7 -17 -15 -4 -8 -10 -15 -15 -15 -5 0 -9 7 -9 15 0
8 5 15 10 15 6 0 10 10 10 21 0 18 -2 19 -15 9 -13 -11 -14 -10 -9 4 3 9 2 16
-4 16 -5 0 -13 -8 -17 -17 -5 -15 -9 -12 -20 15 -8 18 -25 36 -40 42 -34 13
-135 12 -157 -1z m239 -144 c0 -8 -4 -12 -9 -9 -5 3 -6 10 -3 15 9 13 12 11
12 -6z m46 -60 c-3 -9 -8 -14 -10 -11 -3 3 -2 9 2 15 9 16 15 13 8 -4z m-52
-48 c-10 -9 -11 -8 -5 6 3 10 9 15 12 12 3 -3 0 -11 -7 -18z m129 8 c0 -8 -4
-15 -10 -15 -5 0 -7 7 -4 15 4 8 8 15 10 15 2 0 4 -7 4 -15z m-100 -35 c0 -5
-5 -10 -11 -10 -5 0 -7 5 -4 10 3 6 8 10 11 10 2 0 4 -4 4 -10z m124 -73 c-3
-8 -12 -18 -20 -21 -10 -4 -13 -2 -8 7 21 37 41 47 28 14z m50 -52 c-30 -39
-45 -45 -37 -15 3 12 8 19 10 16 3 -3 14 4 26 15 31 28 31 23 1 -16z m-14
-146 c0 -6 -4 -7 -10 -4 -5 3 -10 11 -10 16 0 6 5 7 10 4 6 -3 10 -11 10 -16z
m43 6 c-3 -9 -8 -14 -10 -11 -3 3 -2 9 2 15 9 16 15 13 8 -4z"/>
<path d="M707 1773 c-4 -3 -7 -11 -7 -17 0 -6 5 -5 12 2 6 6 9 14 7 17 -3 3
-9 2 -12 -2z"/>
<path d="M1115 1710 c-27 -11 -62 -33 -78 -50 -15 -16 -32 -30 -36 -30 -10 0
-19 -42 -26 -125 -5 -51 -2 -66 17 -100 13 -22 39 -50 58 -63 19 -12 43 -29
53 -37 22 -19 23 -65 1 -65 -8 0 -32 -18 -51 -40 -40 -44 -58 -48 -104 -24
-17 8 -45 15 -62 14 -18 -1 -38 -2 -44 -1 -15 1 -17 37 -3 46 15 9 12 51 -5
65 -12 10 -16 8 -24 -12 -5 -13 -17 -30 -26 -38 -10 -8 -40 -48 -69 -90 -48
-71 -51 -78 -50 -137 1 -45 8 -76 27 -115 15 -29 28 -72 29 -96 2 -23 8 -42
13 -42 14 0 18 65 5 90 -6 11 -7 20 -1 20 5 0 11 -7 15 -15 11 -30 24 -14 19
25 -4 27 0 47 11 64 9 14 16 32 16 41 0 8 18 26 39 39 22 14 42 30 46 35 4 7
14 6 30 -1 19 -8 28 -8 40 2 22 18 19 61 -5 67 -11 3 -20 9 -20 13 0 5 13 3
30 -3 22 -8 38 -8 58 -1 27 10 28 10 24 -13 -3 -14 3 -32 13 -43 16 -18 27
-20 95 -14 l77 7 29 -33 c16 -19 36 -41 44 -50 11 -11 15 -29 12 -58 -3 -28 0
-42 8 -42 7 0 9 -8 5 -20 -11 -35 15 -22 31 15 17 42 17 45 2 45 -10 0 -12 22
-9 85 1 47 0 101 -3 119 -6 33 -67 106 -115 139 -23 15 -23 16 -7 48 19 38 19
39 6 39 -5 0 -10 -5 -10 -11 0 -7 -8 -18 -17 -25 -20 -15 -34 -18 -31 -6 1 4
-3 17 -10 30 -8 14 -9 22 -2 22 5 0 10 5 10 11 0 6 -7 9 -15 5 -8 -3 -15 -1
-15 3 0 5 -9 7 -20 4 -12 -3 -20 0 -20 6 0 7 -4 9 -10 6 -5 -3 -10 -1 -10 5 0
6 -5 8 -12 4 -7 -4 -8 -3 -4 4 4 6 13 9 21 5 8 -3 15 0 15 7 0 7 7 10 16 6 9
-3 21 -3 27 1 21 13 33 11 33 -7 0 -9 -6 -17 -13 -17 -7 0 -13 4 -13 8 0 4
-10 4 -22 1 -21 -5 -20 -7 10 -14 22 -6 38 -5 47 2 9 7 15 6 24 -3 8 -11 5
-16 -14 -25 -30 -14 -33 -37 -5 -39 22 -2 27 12 8 20 -9 4 -8 6 2 7 8 0 23 12
34 26 l19 26 -24 -7 -24 -6 24 19 c13 11 21 24 17 31 -10 15 -29 14 -21 -1 4
-7 -2 -3 -12 10 -15 18 -21 20 -31 10 -6 -6 -12 -8 -12 -4 0 5 -7 2 -17 -5
-15 -13 -15 -12 -5 7 8 14 22 21 53 23 23 1 52 7 63 12 21 10 20 10 -1 -9 -15
-14 -18 -23 -11 -33 7 -11 11 -11 15 -1 2 6 8 10 13 7 9 -5 33 21 36 39 1 6 5
23 9 37 5 21 1 29 -19 42 -39 26 -96 31 -154 14 -29 -9 -52 -12 -52 -6 0 5 11
9 24 9 35 0 41 17 9 25 -21 5 -24 8 -12 16 19 12 62 12 54 -1 -3 -5 -1 -10 4
-10 6 0 11 5 11 11 0 8 16 10 51 6 48 -6 50 -5 47 16 -7 47 -88 60 -173 27z
m-39 -80 c0 -11 -4 -20 -8 -20 -5 0 -22 -15 -38 -32 -16 -18 -30 -30 -30 -26
0 4 10 17 22 28 18 16 20 23 9 29 -10 7 -8 12 10 25 30 21 35 20 35 -4z m87
-50 c-13 -5 -23 -15 -23 -22 0 -7 -11 -14 -25 -14 -22 -2 -24 0 -13 13 14 17
45 32 68 32 8 0 5 -4 -7 -9z m-103 -20 c-6 -11 -16 -20 -22 -20 -6 0 -3 9 7
20 10 11 20 20 22 20 2 0 -1 -9 -7 -20z m250 0 c-8 -5 -23 -7 -32 -4 -10 3
-18 1 -18 -5 0 -6 -8 -11 -17 -11 -16 1 -16 2 1 15 11 8 34 15 50 15 24 0 27
-3 16 -10z m-121 -21 c-18 -11 -39 -11 -39 0 0 11 31 20 44 13 4 -2 2 -8 -5
-13z m-114 -29 c-10 -11 -21 -18 -23 -15 -3 3 3 12 14 20 27 20 30 18 9 -5z
m-51 -25 c-9 -14 -19 -23 -22 -20 -5 4 26 45 35 45 2 0 -4 -11 -13 -25z m26
-81 c0 -8 -19 -13 -24 -6 -3 5 1 9 9 9 8 0 15 -2 15 -3z m73 -36 c-2 -5 -11
-1 -18 9 -13 17 -14 17 -29 -2 -15 -20 -16 -19 -12 5 3 14 5 26 5 28 1 2 14
-5 30 -14 17 -10 27 -22 24 -26z m53 -86 c-3 -2 -1 -13 5 -24 8 -14 17 -18 33
-14 17 4 30 -3 53 -27 41 -43 53 -69 53 -113 l0 -36 -34 26 c-39 29 -107 47
-148 39 -15 -3 -28 -2 -29 3 0 5 -1 25 -3 45 -2 28 2 38 18 45 25 11 33 58 14
81 -10 13 -8 13 15 -2 15 -10 25 -20 23 -23z m-354 -113 c11 -6 30 -8 41 -5
19 4 22 1 23 -24 1 -16 -2 -28 -5 -27 -3 0 -22 -4 -42 -11 -52 -18 -96 -78
-105 -141 -9 -66 -22 -54 -34 30 -10 72 1 107 63 191 29 39 32 41 35 20 2 -12
13 -27 24 -33z m268 15 c0 -8 -5 -12 -10 -9 -6 4 -8 11 -5 16 9 14 15 11 15
-7z m-170 -59 c0 -5 -5 -3 -10 5 -5 8 -10 20 -10 25 0 6 5 3 10 -5 5 -8 10
-19 10 -25z m165 5 c-3 -5 -10 -10 -16 -10 -5 0 -9 5 -9 10 0 6 7 10 16 10 8
0 12 -4 9 -10z m-135 -25 c0 -8 -4 -15 -10 -15 -5 0 -7 7 -4 15 4 8 8 15 10
15 2 0 4 -7 4 -15z m359 -60 c7 3 11 -3 11 -16 0 -18 -2 -20 -16 -9 -8 8 -20
23 -25 34 -10 20 -9 20 5 2 8 -10 19 -15 25 -11z"/>
<path d="M502 1575 c-19 -8 -37 -26 -43 -42 -5 -15 -16 -40 -23 -54 -23 -47
-3 -52 42 -11 55 51 123 85 156 76 31 -7 35 -34 6 -34 -38 0 -118 -49 -137
-84 -12 -21 4 -46 29 -46 7 0 2 -7 -10 -16 -12 -8 -22 -22 -22 -30 0 -8 -7
-29 -16 -45 -23 -45 -11 -58 14 -16 12 21 28 37 36 37 8 0 29 12 48 27 25 21
28 22 14 5 -25 -29 -12 -41 17 -16 12 11 30 26 40 33 15 12 17 12 11 -3 -7
-18 3 -21 25 -7 10 7 18 5 25 -4 9 -12 17 -11 51 5 24 11 33 19 22 19 -10 1
-27 -4 -38 -9 -42 -23 -16 8 31 35 27 17 50 33 50 36 0 4 -9 18 -21 33 l-20
26 30 0 c17 0 31 5 31 10 0 6 -11 10 -25 10 -25 0 -25 1 -9 25 9 14 27 28 40
31 13 3 24 10 24 15 0 19 -39 8 -76 -22 -23 -18 -40 -26 -42 -19 -14 42 -190
65 -260 35z m18 -28 c0 -2 -12 -14 -27 -28 -24 -22 -24 -13 0 19 8 11 27 17
27 9z m183 -34 c-7 -2 -19 -2 -25 0 -7 3 -2 5 12 5 14 0 19 -2 13 -5z m-43
-37 c0 -3 -4 -8 -10 -11 -5 -3 -10 -1 -10 4 0 6 5 11 10 11 6 0 10 -2 10 -4z
m-81 -52 c-6 -8 -21 -14 -33 -14 -21 1 -21 1 3 20 25 22 49 17 30 -6z m194 -5
c-24 -12 -40 -26 -36 -32 4 -6 1 -7 -7 -2 -17 11 36 55 65 55 13 0 5 -8 -22
-21z"/>
<path d="M396 1421 c-4 -7 -5 -15 -2 -18 9 -9 19 4 14 18 -4 11 -6 11 -12 0z"/>
<path d="M1255 1390 c-3 -5 -2 -10 4 -10 5 0 13 5 16 10 3 6 2 10 -4 10 -5 0
-13 -4 -16 -10z"/>
<path d="M500 1260 c0 -5 5 -10 10 -10 6 0 10 5 10 10 0 6 -4 10 -10 10 -5 0
-10 -4 -10 -10z"/>
<path d="M640 1150 c0 -5 5 -10 10 -10 6 0 10 5 10 10 0 6 -4 10 -10 10 -5 0
-10 -4 -10 -10z"/>
<path d="M985 1041 c-52 -15 -85 -30 -85 -41 0 -13 -2 -13 85 11 56 15 79 17
94 9 19 -10 41 3 27 17 -9 10 -90 12 -121 4z"/>
<path d="M1015 983 c-64 -11 -91 -12 -133 -3 -61 13 -77 6 -44 -18 20 -16 34
-16 125 -8 56 6 141 10 190 10 48 -1 87 2 87 6 0 8 -93 30 -123 29 -12 0 -58
-7 -102 -16z"/>
<path d="M960 911 c0 -14 56 -24 90 -16 50 11 34 25 -30 25 -33 0 -60 -4 -60
-9z"/>
<path d="M1262 478 c-24 -13 -41 -27 -38 -35 3 -6 -4 -15 -15 -18 -15 -5 -18
-12 -13 -28 9 -31 11 -32 38 -13 14 9 29 16 33 16 4 0 0 -5 -9 -11 -20 -11
-24 -29 -7 -29 6 0 22 9 36 19 13 11 31 17 39 14 12 -4 12 -8 -3 -19 -16 -11
-16 -13 -2 -14 9 0 24 9 34 20 18 19 17 20 -5 20 -19 0 -21 3 -12 12 15 15 16
32 2 23 -14 -9 -13 8 2 23 18 18 -6 16 -43 -4 -17 -8 -36 -13 -42 -11 -6 2 3
10 21 18 18 7 32 20 32 26 0 16 3 17 -48 -9z m-16 -63 c-11 -8 -22 -12 -25 -9
-6 6 19 24 34 24 6 -1 1 -7 -9 -15z"/>
<path d="M1130 270 c0 -5 5 -10 10 -10 6 0 10 5 10 10 0 6 -4 10 -10 10 -5 0
-10 -4 -10 -10z"/>
<path d="M157 1363 c-4 -3 -7 -11 -7 -17 0 -6 5 -5 12 2 6 6 9 14 7 17 -3 3
-9 2 -12 -2z"/>
<path d="M125 1230 c3 -5 8 -10 11 -10 2 0 4 5 4 10 0 6 -5 10 -11 10 -5 0 -7
-4 -4 -10z"/>
<path d="M1635 400 c-3 -5 -1 -10 4 -10 6 0 11 5 11 10 0 6 -2 10 -4 10 -3 0
-8 -4 -11 -10z"/>
<path d="M1590 380 c0 -5 4 -10 9 -10 6 0 13 5 16 10 3 6 -1 10 -9 10 -9 0
-16 -4 -16 -10z"/>
<path d="M943 83 c-53 -25 -67 -48 -38 -60 16 -6 253 31 263 41 15 16 -16 17
-101 2 -133 -23 -152 -22 -102 5 84 44 64 55 -22 12z"/>
<path d="M1180 80 c0 -5 5 -10 10 -10 6 0 10 5 10 10 0 6 -4 10 -10 10 -5 0
-10 -4 -10 -10z"/>
</g>
</svg>
